<svg preserveAspectRatio="none" width="100%" height="100%" overflow="visible" style="display: block;" viewBox="0 0 30.1797 32.0511" fill="none" xmlns="http://www.w3.org/2000/svg">
<g id="Group">
<path id="Vector" fill-rule="evenodd" clip-rule="evenodd" d="M19.444 11.9867C19.4096 12.0958 19.3828 12.2072 19.364 12.32V13.1334C19.3425 13.1831 19.3313 13.2367 19.3311 13.2909C19.331 13.3451 19.3418 13.3988 19.363 13.4486C19.3842 13.4985 19.4153 13.5436 19.4544 13.581C19.4936 13.6185 19.5399 13.6477 19.5907 13.6667C19.6404 13.6882 19.694 13.6994 19.7482 13.6996C19.8024 13.6997 19.8561 13.6889 19.9059 13.6677C19.9558 13.6465 20.0009 13.6154 20.0383 13.5763C20.0758 13.5371 20.105 13.4908 20.124 13.44C20.312 13.225 20.4857 12.9978 20.644 12.76C20.7104 12.6652 20.7642 12.5621 20.804 12.4534C20.8433 12.3411 20.8701 12.2248 20.884 12.1067C20.8907 12.0536 20.8907 11.9998 20.884 11.9467C21.3697 12.0263 21.865 12.0263 22.3507 11.9467C22.8272 11.9146 23.2781 11.7195 23.6278 11.3941C23.9774 11.0688 24.2044 10.633 24.2707 10.16C24.3149 9.8803 24.2893 9.59398 24.1963 9.32649C24.1033 9.059 23.9456 8.81862 23.7373 8.6267C23.0844 8.13346 22.3348 7.78361 21.5373 7.60004C21.2588 7.51398 20.9906 7.39773 20.7373 7.25337C20.6594 7.21239 20.5922 7.15361 20.5412 7.08179C20.4903 7.00997 20.457 6.92714 20.444 6.84004C20.364 6.17337 20.8573 5.89337 21.4573 5.84004C22.2183 5.81138 22.9732 5.98629 23.644 6.3467C23.6832 6.37441 23.7276 6.39399 23.7744 6.40431C23.8213 6.41462 23.8698 6.41545 23.917 6.40676C23.9642 6.39806 24.0092 6.38001 24.0493 6.35367C24.0895 6.32733 24.1239 6.29322 24.1507 6.25337C24.2019 6.17151 24.2193 6.07301 24.1994 5.97854C24.1796 5.88407 24.1238 5.80098 24.044 5.7467C23.6993 5.5076 23.3221 5.31902 22.924 5.1867C22.9636 5.14561 22.9993 5.10098 23.0307 5.05337C23.0752 4.94076 23.1108 4.82485 23.1373 4.7067C23.1449 4.60017 23.1449 4.49323 23.1373 4.3867V3.57337C23.1589 3.52363 23.17 3.47004 23.1702 3.41584C23.1704 3.36165 23.1595 3.30798 23.1383 3.25811C23.1172 3.20823 23.086 3.16318 23.0469 3.1257C23.0078 3.08821 22.9614 3.05907 22.9107 3.04004C22.8609 3.01852 22.8073 3.00734 22.7531 3.00716C22.699 3.00699 22.6453 3.01783 22.5954 3.03903C22.5455 3.06023 22.5005 3.09134 22.463 3.13048C22.4255 3.16961 22.3964 3.21596 22.3773 3.2667C22.1894 3.47717 22.0157 3.69988 21.8573 3.93337C21.8299 4.0382 21.812 4.14531 21.804 4.25337C21.7663 4.36154 21.7395 4.4732 21.724 4.5867C21.7173 4.68437 21.7173 4.78237 21.724 4.88004C21.4057 4.83315 21.0823 4.83315 20.764 4.88004C20.5229 4.90316 20.2888 4.97436 20.0757 5.08943C19.8625 5.20451 19.6746 5.36113 19.5229 5.55004C19.3713 5.73896 19.2591 5.95634 19.1928 6.18935C19.1266 6.42236 19.1077 6.66628 19.1373 6.9067C19.1506 7.17146 19.2249 7.42955 19.3545 7.66085C19.484 7.89214 19.6652 8.09036 19.884 8.24004C20.5487 8.64807 21.2666 8.96216 22.0173 9.17337C22.4573 9.33337 22.9107 9.45337 22.8707 9.9467C22.8307 10.44 22.244 10.7067 21.6307 10.76C20.9059 10.8366 20.1744 10.7023 19.524 10.3734C19.3752 10.2714 19.2444 10.1452 19.1373 10C18.968 9.79154 18.8248 9.56319 18.7107 9.32004C18.6668 9.22228 18.5866 9.14539 18.4871 9.10559C18.3876 9.06579 18.2766 9.06619 18.1773 9.1067C18.1273 9.12842 18.0821 9.15983 18.0442 9.19911C18.0064 9.2384 17.9767 9.28479 17.9568 9.33561C17.937 9.38643 17.9274 9.44067 17.9287 9.49521C17.9299 9.54974 17.9419 9.6035 17.964 9.65337C18.0834 9.99213 18.2446 10.3146 18.444 10.6134C18.5973 10.8352 18.7919 11.0254 19.0173 11.1734C19.209 11.3102 19.4146 11.4264 19.6307 11.52V11.5867C19.5453 11.7079 19.4821 11.8434 19.444 11.9867Z" fill="var(--fill-0, #F9F5EA)"/>
<path id="Vector_2" fill-rule="evenodd" clip-rule="evenodd" d="M29.3773 4.5736C28.4216 2.89086 26.9216 1.5836 25.124 0.866936C23.3768 0.0699828 21.431 -0.185435 19.5373 0.133602C18.0272 0.442268 16.614 1.11151 15.4184 2.08427C14.2228 3.05704 13.28 4.30448 12.6706 5.72027C12.0499 7.14555 11.8819 8.72714 12.1896 10.251C12.4972 11.7749 13.2656 13.1674 14.3906 14.2403C14.8044 14.6609 15.2502 15.0487 15.724 15.4003C16.202 15.7624 16.7268 16.0584 17.284 16.2803C17.9326 16.5291 18.6167 16.6732 19.3106 16.7069C20.3179 16.7615 21.3281 16.7079 22.324 16.5469C22.3714 16.542 22.4173 16.5276 22.4591 16.5048C22.5009 16.4819 22.5378 16.451 22.5675 16.4138C22.5973 16.3766 22.6194 16.3338 22.6325 16.288C22.6456 16.2422 22.6495 16.1943 22.644 16.1469C22.6307 16.0526 22.5819 15.967 22.5075 15.9075C22.4332 15.848 22.3389 15.8192 22.244 15.8269C21.2959 15.9338 20.3388 15.9338 19.3906 15.8269C18.781 15.769 18.1833 15.6208 17.6173 15.3869C17.136 15.1815 16.6869 14.9076 16.284 14.5736C15.8607 14.2405 15.4639 13.8749 15.0973 13.4803C14.1727 12.5328 13.5578 11.3267 13.334 10.0219C13.1101 8.7171 13.288 7.37507 13.844 6.1736C14.3835 4.96463 15.2051 3.90265 16.2398 3.07675C17.2745 2.25084 18.4922 1.68509 19.7906 1.42694C21.415 1.15666 23.0828 1.36514 24.5906 2.02694C26.1289 2.60241 27.4295 3.67762 28.284 5.08027C28.7613 6.00618 29.0311 7.02492 29.0749 8.06568C29.1186 9.10644 28.9352 10.1442 28.5373 11.1069C28.1674 12.0953 27.5781 12.9869 26.8136 13.7144C26.0491 14.4419 25.1295 14.9864 24.124 15.3069C24.0197 15.338 23.9312 15.4078 23.8767 15.502C23.8222 15.5962 23.8057 15.7077 23.8306 15.8136C23.8617 15.9208 23.9336 16.0115 24.0308 16.0664C24.128 16.1212 24.2428 16.1358 24.3506 16.1069C25.4965 15.7734 26.5522 15.1852 27.4388 14.3864C28.3253 13.5875 29.0199 12.5986 29.4706 11.4936C29.9535 10.4012 30.1951 9.21762 30.179 8.02342C30.1628 6.82922 29.8894 5.65254 29.3773 4.5736Z" fill="var(--fill-0, #F9F5EA)"/>
<path id="Vector_3" fill-rule="evenodd" clip-rule="evenodd" d="M3.53736 13.6006C3.68644 13.9566 3.8556 14.3038 4.04403 14.6406C4.19423 14.8778 4.40023 15.0747 4.64403 15.2139C4.74607 15.2625 4.85767 15.2877 4.97069 15.2877C5.08371 15.2877 5.19531 15.2625 5.29736 15.2139C5.68133 14.9999 6.04701 14.7547 6.39069 14.4806C6.84403 14.1206 7.29736 13.7206 7.72403 13.3206C8.15069 12.9206 8.56403 12.4939 8.95069 12.0806C8.98939 12.0422 9.02011 11.9965 9.04107 11.9461C9.06203 11.8958 9.07282 11.8418 9.07282 11.7873C9.07282 11.7327 9.06203 11.6787 9.04107 11.6284C9.02011 11.578 8.98939 11.5323 8.95069 11.4939C8.91342 11.4556 8.86885 11.4252 8.81961 11.4044C8.77037 11.3836 8.71747 11.3729 8.66403 11.3729C8.61058 11.3729 8.55768 11.3836 8.50844 11.4044C8.4592 11.4252 8.41463 11.4556 8.37736 11.4939C7.95069 11.8539 7.51069 12.2006 7.04403 12.5339C6.57736 12.8673 6.28403 13.0539 5.89736 13.2939C6.23816 12.3816 6.65287 11.4987 7.13736 10.6539C7.54685 9.90079 8.0244 9.1867 8.56403 8.52059C9.3925 7.39461 10.5261 6.5294 11.8307 6.02726C11.8771 6.01655 11.9208 5.99639 11.9591 5.96803C11.9974 5.93967 12.0294 5.90373 12.0532 5.86244C12.077 5.82115 12.092 5.77541 12.0973 5.72806C12.1026 5.68072 12.0981 5.63278 12.084 5.58726C12.0749 5.53964 12.0558 5.49447 12.0282 5.45467C12.0005 5.41487 11.9647 5.38132 11.9233 5.35619C11.8818 5.33106 11.8355 5.3149 11.7874 5.30877C11.7393 5.30264 11.6905 5.30667 11.644 5.32059C10.0553 5.61802 8.608 6.42832 7.52403 7.62726C6.89503 8.33836 6.37391 9.13801 5.97736 10.0006C5.48991 11.0836 5.13188 12.2204 4.91069 13.3873C4.88483 13.2587 4.84458 13.1335 4.79069 13.0139C4.42987 12.332 4.12228 11.6232 3.87069 10.8939C3.60296 10.1559 3.39343 9.39801 3.24403 8.62726C3.23877 8.57998 3.22426 8.53421 3.20131 8.49254C3.17837 8.45087 3.14744 8.41413 3.1103 8.38442C3.07316 8.3547 3.03052 8.33259 2.98484 8.31936C2.93915 8.30612 2.8913 8.30201 2.84403 8.30726C2.79675 8.31251 2.75097 8.32703 2.7093 8.34997C2.66764 8.37292 2.6309 8.40384 2.60118 8.44099C2.57147 8.47813 2.54936 8.52076 2.53612 8.56645C2.52288 8.61214 2.51877 8.65998 2.52403 8.70726C2.54682 9.7093 2.67644 10.7061 2.91069 11.6806C3.07322 12.3348 3.28265 12.9765 3.53736 13.6006Z" fill="var(--fill-0, #FF4A15)"/>
<path id="Vector_4" fill-rule="evenodd" clip-rule="evenodd" d="M21.3106 21.6404C21.285 20.6325 21.1463 19.6307 20.8973 18.6538C20.8218 18.498 20.7072 18.3645 20.5646 18.2664C20.422 18.1682 20.2564 18.1087 20.084 18.0938C19.284 17.9604 17.2306 17.8671 17.004 17.8404C15.924 17.7204 14.8573 17.6404 13.7773 17.5604C12.6973 17.4804 11.6173 17.4538 10.5373 17.4271H6.65731C4.73731 17.5338 2.81731 17.7071 0.897311 17.8671C0.787689 17.8671 0.682556 17.9106 0.605041 17.9881C0.527526 18.0657 0.483978 18.1708 0.483978 18.2804C0.483978 18.39 0.527526 18.4952 0.605041 18.5727C0.682556 18.6502 0.787689 18.6938 0.897311 18.6938C2.81731 18.5738 4.72398 18.4271 6.64398 18.3738H10.444C11.7106 18.3738 12.5773 18.4938 13.644 18.5871C14.7106 18.6804 15.7506 18.7871 16.804 18.9338C17.0173 18.9338 18.8706 19.0804 19.7106 19.2271C19.8509 19.9566 19.9223 20.6976 19.924 21.4404C17.8173 21.1604 15.644 20.8804 13.444 20.7471C11.8674 20.6604 10.2872 20.6604 8.71064 20.7471C6.17933 20.8722 3.66797 21.261 1.21731 21.9071V19.2404C1.21737 19.1437 1.17988 19.0507 1.11272 18.981C1.04556 18.9114 0.953996 18.8705 0.857311 18.8671C0.760565 18.867 0.667572 18.9045 0.597929 18.9717C0.528287 19.0388 0.487433 19.1304 0.483978 19.2271L0.230645 27.2271C0.230645 27.7204 0.0173113 28.6804 0.00397797 29.4671C-0.0185013 29.8782 0.0545169 30.2889 0.217311 30.6671C0.490983 30.9704 0.865085 31.1646 1.27064 31.2138C3.64639 31.6617 6.05396 31.9203 8.47064 31.9871C11.8573 32.0938 15.564 32.0671 17.924 31.9071C18.8316 31.9017 19.7323 31.7486 20.5906 31.4538C20.7924 31.2908 20.959 31.0886 21.0805 30.8594C21.2019 30.6303 21.2757 30.3789 21.2973 30.1204C21.3955 28.7889 21.3955 27.4519 21.2973 26.1204C21.2573 24.6804 21.364 23.1338 21.3106 21.6404ZM19.804 29.9871C19.7916 30.0652 19.7692 30.1414 19.7373 30.2138C19.2253 30.3346 18.7029 30.406 18.1773 30.4271C16.3106 30.5871 13.364 30.6671 10.4306 30.6671C7.55008 30.7262 4.66867 30.6015 1.80398 30.2938C1.52398 30.2938 1.29731 30.0671 1.20398 30.1071C1.13762 29.8233 1.11514 29.531 1.13731 29.2404C1.13731 28.5204 1.29731 27.7471 1.29731 27.3204V25.0537C1.35429 25.0673 1.41367 25.0673 1.47064 25.0537C2.67064 25.0537 3.85731 24.9738 5.04398 24.9738H7.91064H10.7106C13.5773 24.9738 16.4306 24.9738 19.3106 25.0671C19.3649 25.0707 19.4194 25.0636 19.471 25.0461C19.5225 25.0286 19.5701 25.0011 19.611 24.9651C19.6518 24.9292 19.6852 24.8856 19.7092 24.8367C19.7332 24.7879 19.7473 24.7347 19.7506 24.6804C19.7561 24.6268 19.7507 24.5726 19.7348 24.5212C19.7188 24.4697 19.6926 24.422 19.6577 24.3809C19.6229 24.3398 19.58 24.3061 19.5319 24.282C19.4837 24.2579 19.4311 24.2437 19.3773 24.2404C17.2706 24.0138 15.1773 23.8004 13.084 23.6804C12.1773 23.6804 11.2706 23.5871 10.4173 23.5871H7.75064C5.64398 23.6938 3.55064 23.9338 1.44398 24.2271H1.35064V22.6538C3.85218 22.2702 6.37989 22.0829 8.91064 22.0938H13.5373C15.7506 22.0938 17.9506 22.2138 20.084 22.3471C20.084 23.6138 19.9906 24.8804 19.9773 26.0004V28.4404C19.9801 28.961 19.9219 29.4801 19.804 29.9871Z" fill="var(--fill-0, #F9F5EA)"/>
<path id="Vector_5" fill-rule="evenodd" clip-rule="evenodd" d="M17.4573 27.987C17.1081 27.8075 16.7473 27.6516 16.3773 27.5203C16.2137 27.4668 16.0427 27.4398 15.8706 27.4403C15.6934 27.4201 15.5145 27.4201 15.3373 27.4403C14.9045 27.5014 14.4878 27.6464 14.1106 27.867C14.0063 27.9024 13.9203 27.9777 13.8715 28.0765C13.8228 28.1753 13.8152 28.2893 13.8506 28.3937C13.886 28.498 13.9613 28.584 14.0601 28.6327C14.1589 28.6815 14.2729 28.689 14.3773 28.6537C14.7131 28.645 15.0488 28.6764 15.3773 28.747C15.6068 28.7831 15.8384 28.8053 16.0706 28.8137C16.5106 28.8137 16.9239 28.7203 17.4039 28.6803C17.4512 28.6873 17.4994 28.685 17.5458 28.6733C17.5921 28.6617 17.6357 28.6411 17.6741 28.6126C17.7125 28.5841 17.7449 28.5484 17.7695 28.5074C17.794 28.4664 17.8103 28.4209 17.8173 28.3737C17.8243 28.3264 17.8219 28.2782 17.8103 28.2318C17.7987 28.1855 17.778 28.1419 17.7495 28.1035C17.7211 28.0651 17.6853 28.0327 17.6443 28.0081C17.6033 27.9836 17.5579 27.9673 17.5106 27.9603L17.4573 27.987Z" fill="var(--fill-0, #F9F5EA)"/>
</g>
</svg>
